<svg xmlns="http://www.w3.org/2000/svg" version="1.1" xmlns:xlink="http://www.w3.org/1999/xlink" xmlns:svgjs="http://svgjs.dev/svgjs" width="1000" height="946" viewBox="0 0 1000 946"><g transform="matrix(1,0,0,1,0.49130333996362197,0.383703199323179)"><svg viewBox="0 0 261 247" data-background-color="#ffffff" preserveAspectRatio="xMidYMid meet" height="946" width="1000" xmlns="http://www.w3.org/2000/svg" xmlns:xlink="http://www.w3.org/1999/xlink"><g id="tight-bounds" transform="matrix(1,0,0,1,-0.12823017173050744,-0.099973655792013)"><svg viewBox="0 0 261.256460343461 247.2" height="247.2" width="261.256460343461"><g><svg viewBox="0 0 261.2564603434611 247.20000000000002" height="247.2" width="261.256460343461"><g><svg viewBox="0 0 261.2564603434611 247.20000000000002" height="247.20000000000002" width="261.2564603434611"><g id="textblocktransform"><svg viewBox="0 0 261.2564603434611 247.20000000000002" height="247.20000000000002" width="261.2564603434611" id="textblock"><g><svg viewBox="0 0 261.2564603434611 247.20000000000002" height="247.20000000000002" width="261.2564603434611"><path d="M260.645 53.02C259.417 27.36 255.916 20.227 255.916 20.227 245.169-6.202 231.757-0.506 219.708 3.292 198.435 3.446 177.248 9.091 156.025 12.119 111.477 12.581 66.549 4.986 22.222 23.717 18.059 29.464-4.32 24.846 0.741 56.304 2.067 69.39 6.906 83.913 6.759 95.922 7.422 98.026 8.343 93.202 8.736 96.23 10.112 104.39 12.36 100.541 14.202 105.365 11.635 118.246 13.477 128.971 15.234 140.21 12.139 143.135 8.171 141.749 6.39 151.449 6.206 158.479 5.211 157.145 4.118 156.837 3.32 156.632 1.711 157.402 1.981 159.608 2.902 167.152-1.053 171.514 1.428 178.904-0.279 186.91 2.608 193.838 2.214 202.511 2.165 204.255 2.436 205.744 2.865 206.154 4.769 208.361 1.993 212.672 2.288 217.342 21.817 249.262 43.004 227.195 63.011 241.872 68.207 231.608 64.301 245.516 66.377 243.36 67.998 240.846 69.177 251.263 71.007 245.362 71.29 243.668 70.86 239.665 71.867 240.435 72.395 240.846 72.862 240.743 72.936 238.382 73.046 234.841 72.076 237.048 71.818 235.201 74.606 225.861 73.918 248.081 76.534 247.158 76.411 244.438 75.65 240.538 77.21 241.051 78.757 237.151 78.806 233.918 80.182 242.693 80.231 244.592 80.477 245.926 80.87 246.85 85.169 237.305 89.443 250.237 93.95 245.926 96.714 241.205 99.367 248.492 102.167 246.696 103.15 245.259 104.145 242.693 105.09 247.004 116.673 247.928 129.016 244.079 139.996 247.158 169.339 241.41 200.695 249.518 231.634 241.923 238.93 238.998 246.508 234.841 253.619 231.506 253.619 231.506 259.38 222.371 259.38 181.316S260.608 145.393 260.792 112.703C260.976 80.013 261.836 78.679 260.608 53.02Z" opacity="1" fill="#b19dd0" data-fill-palette-color="tertiary"></path><g transform="matrix(1,0,0,1,55.76832000000002,26.230666666666668)"><svg width="149.71982034346104" viewBox="3.9000000953674316 -37.29999923706055 29.100000381469727 37.849998474121094" height="194.7386666666667" data-palette-color="#ffffff"><path d="M32.15-29.9L32.15-29.9Q32.15-28.05 30.98-26.93 29.8-25.8 27.75-25.8 25.7-25.8 23.9-27.1L23.9-27.1Q24.3-27.9 24.3-29.18 24.3-30.45 22.83-31.45 21.35-32.45 18.63-32.45 15.9-32.45 14.15-31.45 12.4-30.45 12.4-28.78 12.4-27.1 14.53-25.68 16.65-24.25 19.68-22.93 22.7-21.6 25.73-20.05 28.75-18.5 30.88-16 33-13.5 33-10.4L33-10.4Q33-5.6 28.73-2.53 24.45 0.55 18.38 0.55 12.3 0.55 8.1-1.73 3.9-4 3.9-7.6L3.9-7.6Q3.9-9.7 5.38-10.95 6.85-12.2 8.93-12.2 11-12.2 13-10.6L13-10.6Q11.8-9.5 11.8-7.95 11.8-6.4 13.63-5.35 15.45-4.3 18.53-4.3 21.6-4.3 23.38-5.55 25.15-6.8 25.15-8.88 25.15-10.95 23.03-12.58 20.9-14.2 17.88-15.5 14.85-16.8 11.83-18.25 8.8-19.7 6.68-21.93 4.55-24.15 4.55-27L4.55-27Q4.55-31.7 8.65-34.5 12.75-37.3 18.7-37.3 24.65-37.3 28.4-35.2 32.15-33.1 32.15-29.9Z" opacity="1" transform="matrix(1,0,0,1,0,0)" fill="#ffffff" class="wordmark-text-0" data-fill-palette-color="quaternary" id="text-0"></path></svg></g></svg></g></svg></g></svg></g><g></g></svg></g><defs></defs></svg><rect width="261.256460343461" height="247.2" fill="none" stroke="none" visibility="hidden"></rect></g></svg></g></svg>